<svg width="155" height="32" viewBox="0 0 155 32" fill="none" xmlns="http://www.w3.org/2000/svg">
<path d="M150 0H31V32H150C152.761 32 155 29.7614 155 27V5C155 2.23858 152.761 0 150 0Z" fill="#0F1418"/>
<path d="M5 0.5H30.5V31.5H5C2.51472 31.5 0.5 29.4853 0.5 27V5C0.5 2.51472 2.51472 0.5 5 0.5Z" fill="white" stroke="#1C2125"/>
<g clip-path="url(#clip0_22_2)">
<path d="M15.5 3C8.59687 3 3 8.59687 3 15.5C3 22.4031 8.59687 28 15.5 28C22.4031 28 28 22.4031 28 15.5C28 8.59687 22.4031 3 15.5 3ZM15.5 4.92292C21.3281 4.93021 26.05 9.65729 26.05 15.4865C26.05 21.3208 21.3208 26.05 15.4865 26.05C9.65208 26.05 4.92292 21.3208 4.92292 15.4865C4.92292 12.5698 6.10521 9.92917 8.01667 8.01771C9.93021 6.10625 12.5729 4.92396 15.4917 4.92396H15.499L15.5 4.92292ZM15.5 7.80833C10.925 8.61458 6.84583 12.8333 6.84583 17.4229C9.08437 13.4708 10.5792 13.1865 10.9927 13.1865C11.4062 13.1865 11.624 13.401 11.624 13.8771V19.7667C11.624 20.499 10.201 20.3792 9.73021 20.3073C11.4698 22.8958 15.5 23.1927 15.5 23.1927L17.4229 21.2698L19.3458 22.2312C22.3812 20.8417 24.1531 17.8667 24.1531 17.424C23.4229 18.3281 22.4385 19.0021 21.3083 19.3365L21.2677 19.3469C21.0125 19.3469 20.3062 19.2156 20.3062 18.8656V11.8937C20.3062 11.2885 21.7042 9.44167 22.2292 8.76875C18.7583 9.67812 17.7521 11.2625 17.7521 11.2625C17.7521 11.2625 17.4885 10.6917 16.4604 10.6917C16.9823 11.1844 17.3333 11.8521 17.4208 12.6L17.4219 12.6146V18.5042C16.875 18.8927 16.2302 19.1844 15.5333 19.3385L15.4979 19.3448C14.8312 19.3448 14.5062 19.074 14.5062 18.5635C14.5062 18.0531 14.5365 11.6531 14.5365 11.6531C14.5365 11.6531 13.575 12.0062 13.575 10.0302C13.575 9.04167 15.4979 7.80625 15.4979 7.80625L15.5 7.80833Z" fill="black"/>
</g>
<path d="M46.9637 21.1446C45.542 21.1446 44.4517 20.8012 43.6926 20.1145C42.9456 19.4157 42.5721 18.4217 42.5721 17.1325V10.6807H44.7228V16.9699C44.7228 17.7892 44.9155 18.4096 45.3011 18.8313C45.6987 19.241 46.2709 19.4458 47.0179 19.4458C47.789 19.4458 48.3794 19.2289 48.789 18.7952C49.2107 18.3494 49.4215 17.7169 49.4215 16.8976V10.6807H51.5902V17.0241C51.5902 18.3373 51.1866 19.3554 50.3794 20.0783C49.5721 20.7892 48.4336 21.1446 46.9637 21.1446ZM58.8545 21V16.5542C58.8545 15.1566 58.3846 14.4578 57.4448 14.4578C56.9508 14.4578 56.5472 14.6747 56.234 15.1084C55.9328 15.5301 55.7822 16.0783 55.7822 16.753V21H53.7219V14.8554C53.7219 14.4337 53.7159 14.0843 53.7038 13.8072C53.6918 13.5301 53.6798 13.2831 53.6677 13.0663H55.6195C55.6316 13.1627 55.6496 13.4157 55.6737 13.8253C55.7099 14.2229 55.7279 14.5 55.7279 14.6566H55.746C56.0231 14.0542 56.3725 13.6145 56.7942 13.3373C57.2159 13.0602 57.7159 12.9217 58.2942 12.9217C59.1376 12.9217 59.7822 13.1807 60.2279 13.6988C60.6858 14.2169 60.9147 14.9759 60.9147 15.9759V21H58.8545ZM63.0425 21V14.9277C63.0425 14.494 63.0365 14.1325 63.0245 13.8434C63.0124 13.5542 63.0004 13.2952 62.9883 13.0663H64.9401C64.9522 13.1506 64.9703 13.4217 64.9944 13.8795C65.0305 14.3253 65.0486 14.6205 65.0486 14.7651H65.0666C65.2715 14.2108 65.4522 13.8193 65.6088 13.5904C65.7654 13.3614 65.9462 13.1928 66.151 13.0843C66.3678 12.9759 66.6389 12.9217 66.9642 12.9217C67.2293 12.9217 67.4401 12.9578 67.5968 13.0301V14.747C67.2594 14.6747 66.9703 14.6386 66.7293 14.6386C66.2112 14.6386 65.8076 14.8494 65.5185 15.2711C65.2413 15.6807 65.1028 16.2952 65.1028 17.1145V21H63.0425ZM72.2876 21.1446C71.0948 21.1446 70.1791 20.7952 69.5406 20.0964C68.902 19.3855 68.5827 18.3554 68.5827 17.006C68.5827 15.6928 68.908 14.6867 69.5586 13.988C70.2093 13.2771 71.1309 12.9217 72.3237 12.9217C73.4562 12.9217 74.3237 13.3012 74.9261 14.0602C75.5285 14.8193 75.8297 15.9217 75.8297 17.3675V17.4398H70.7514C70.7514 18.2108 70.89 18.7952 71.1671 19.1928C71.4562 19.5783 71.8659 19.7711 72.396 19.7711C73.1189 19.7711 73.5767 19.4578 73.7695 18.8313L75.7213 18.994C75.155 20.4277 74.0105 21.1446 72.2876 21.1446ZM72.2876 14.2229C71.8056 14.2229 71.4321 14.3916 71.1671 14.7289C70.9141 15.0663 70.7815 15.5361 70.7695 16.1386H73.8418C73.8056 15.5 73.649 15.0241 73.3719 14.7108C73.1068 14.3855 72.7454 14.2229 72.2876 14.2229ZM79.3929 21.1446C78.6218 21.1446 78.0194 20.9398 77.5857 20.5301C77.164 20.1084 76.9531 19.5181 76.9531 18.759C76.9531 17.9398 77.2182 17.3193 77.7483 16.8976C78.2905 16.4639 79.0676 16.241 80.0796 16.2289L81.7965 16.1928V15.7952C81.7965 15.2771 81.7061 14.8916 81.5254 14.6386C81.3447 14.3855 81.0495 14.259 80.6399 14.259C80.2543 14.259 79.9712 14.3494 79.7905 14.5301C79.6218 14.6988 79.5134 14.9819 79.4652 15.3795L77.3146 15.2711C77.4471 14.5 77.7965 13.9157 78.3628 13.5181C78.9411 13.1205 79.7302 12.9217 80.7302 12.9217C81.7302 12.9217 82.5013 13.1687 83.0435 13.6627C83.5857 14.1566 83.8567 14.8614 83.8567 15.7771V18.6506C83.8567 19.0964 83.9049 19.4036 84.0013 19.5723C84.0977 19.741 84.2664 19.8253 84.5073 19.8253C84.664 19.8253 84.8146 19.8133 84.9592 19.7892V20.8916C84.8387 20.9157 84.7302 20.9458 84.6339 20.9819C84.5375 21.006 84.4351 21.0241 84.3266 21.0361C84.2302 21.0482 84.1278 21.0602 84.0194 21.0723C83.911 21.0843 83.7845 21.0904 83.6399 21.0904C83.1218 21.0904 82.7363 20.9639 82.4832 20.7108C82.2423 20.4578 82.0977 20.0843 82.0495 19.5904H82.0134C81.423 20.6265 80.5495 21.1446 79.3929 21.1446ZM81.7965 17.3313L80.7302 17.3494C80.2483 17.3735 79.9049 17.4277 79.7001 17.512C79.5073 17.5964 79.3567 17.7289 79.2483 17.9096C79.1519 18.0783 79.1037 18.3072 79.1037 18.5964C79.1037 18.9699 79.1881 19.253 79.3567 19.4458C79.5375 19.6265 79.7724 19.7169 80.0616 19.7169C80.3869 19.7169 80.682 19.6265 80.9471 19.4458C81.2122 19.2651 81.417 19.0241 81.5616 18.7229C81.7182 18.4096 81.7965 18.0783 81.7965 17.7289V17.3313ZM86.0825 21V10.1386H88.1428V21H86.0825ZM94.5363 21V10.6807H102.651V12.3434H96.6869V14.9458H102.199V16.6084H96.6869V19.3373H102.94V21H94.5363ZM109.875 21V16.5542C109.875 15.1566 109.405 14.4578 108.466 14.4578C107.972 14.4578 107.568 14.6747 107.255 15.1084C106.954 15.5301 106.803 16.0783 106.803 16.753V21H104.743V14.8554C104.743 14.4337 104.737 14.0843 104.725 13.8072C104.713 13.5301 104.7 13.2831 104.688 13.0663H106.64C106.652 13.1627 106.67 13.4157 106.694 13.8253C106.731 14.2229 106.749 14.5 106.749 14.6566H106.767C107.044 14.0542 107.393 13.6145 107.815 13.3373C108.237 13.0602 108.737 12.9217 109.315 12.9217C110.158 12.9217 110.803 13.1807 111.249 13.6988C111.707 14.2169 111.935 14.9759 111.935 15.9759V21H109.875ZM117.389 24.1807C116.425 24.1807 115.648 23.994 115.057 23.6205C114.467 23.259 114.099 22.7349 113.955 22.0482L116.015 21.8133C116.087 22.1265 116.244 22.3735 116.485 22.5542C116.726 22.7349 117.045 22.8253 117.443 22.8253C118.009 22.8253 118.425 22.6506 118.69 22.3012C118.955 21.9518 119.087 21.4277 119.087 20.7289V20.3133L119.105 19.5361H119.087C118.63 20.512 117.78 20.994 116.539 20.9819C115.611 20.9819 114.895 20.6386 114.389 19.9518C113.883 19.253 113.63 18.259 113.63 16.9699C113.63 15.6807 113.889 14.6867 114.407 13.988C114.937 13.2771 115.696 12.9217 116.684 12.9217C117.84 12.9217 118.642 13.3976 119.087 14.3494H119.124C119.124 14.1807 119.136 13.9518 119.16 13.6627C119.184 13.3614 119.208 13.1627 119.232 13.0663H121.166C121.142 13.5964 121.13 14.2108 121.13 14.9096V20.7651C121.13 21.8976 120.81 22.747 120.172 23.3133C119.533 23.8916 118.605 24.1807 117.389 24.1807ZM119.105 16.9337C119.105 16.1145 118.961 15.4759 118.672 15.0181C118.383 14.5602 117.967 14.3313 117.425 14.3313C116.328 14.3313 115.78 15.2108 115.78 16.9699C115.78 18.6928 116.322 19.5542 117.407 19.5542C117.949 19.5542 118.364 19.3313 118.654 18.8855C118.955 18.4277 119.105 17.7771 119.105 16.9337ZM123.384 11.6386V10.1386H125.444V11.6386H123.384ZM123.384 21V13.0663H125.444V21H123.384ZM132.857 21V16.5542C132.857 15.1566 132.387 14.4578 131.447 14.4578C130.953 14.4578 130.549 14.6747 130.236 15.1084C129.935 15.5301 129.784 16.0783 129.784 16.753V21H127.724V14.8554C127.724 14.4337 127.718 14.0843 127.706 13.8072C127.694 13.5301 127.682 13.2831 127.67 13.0663H129.622C129.634 13.1627 129.652 13.4157 129.676 13.8253C129.712 14.2229 129.73 14.5 129.73 14.6566H129.748C130.025 14.0542 130.375 13.6145 130.796 13.3373C131.218 13.0602 131.718 12.9217 132.296 12.9217C133.14 12.9217 133.784 13.1807 134.23 13.6988C134.688 14.2169 134.917 14.9759 134.917 15.9759V21H132.857ZM140.28 21.1446C139.087 21.1446 138.171 20.7952 137.533 20.0964C136.894 19.3855 136.575 18.3554 136.575 17.006C136.575 15.6928 136.9 14.6867 137.551 13.988C138.201 13.2771 139.123 12.9217 140.316 12.9217C141.448 12.9217 142.316 13.3012 142.918 14.0602C143.521 14.8193 143.822 15.9217 143.822 17.3675V17.4398H138.743C138.743 18.2108 138.882 18.7952 139.159 19.1928C139.448 19.5783 139.858 19.7711 140.388 19.7711C141.111 19.7711 141.569 19.4578 141.762 18.8313L143.713 18.994C143.147 20.4277 142.003 21.1446 140.28 21.1446ZM140.28 14.2229C139.798 14.2229 139.424 14.3916 139.159 14.7289C138.906 15.0663 138.774 15.5361 138.762 16.1386H141.834C141.798 15.5 141.641 15.0241 141.364 14.7108C141.099 14.3855 140.737 14.2229 140.28 14.2229Z" fill="white"/>
<path d="M150 0H5C2.23858 0 0 2.23858 0 5V27C0 29.7614 2.23858 32 5 32H150C152.761 32 155 29.7614 155 27V5C155 2.23858 152.761 0 150 0Z" fill="url(#paint0_linear_22_2)"/>
<defs>
<linearGradient id="paint0_linear_22_2" x1="0" y1="0" x2="0" y2="32" gradientUnits="userSpaceOnUse">
<stop stop-color="#BBBBBB" stop-opacity="0.1"/>
<stop offset="1" stop-opacity="0.1"/>
</linearGradient>
<clipPath id="clip0_22_2">
<rect width="25" height="25" fill="white" transform="translate(3 3)"/>
</clipPath>
</defs>
</svg>
