<svg width="131" height="32" viewBox="0 0 131 32" fill="none" xmlns="http://www.w3.org/2000/svg">
<path d="M126 0H31V32H126C128.761 32 131 29.7614 131 27V5C131 2.23858 128.761 0 126 0Z" fill="#0F1418"/>
<path d="M5 0.5H30.5V31.5H5C2.51472 31.5 0.5 29.4853 0.5 27V5C0.5 2.51472 2.51472 0.5 5 0.5Z" fill="white" stroke="#1C2125"/>
<path d="M45.748 19.4458C47.0493 19.4458 47.9589 18.7892 48.477 17.4759L50.3565 18.1988C49.9468 19.1988 49.3505 19.9398 48.5673 20.4217C47.7842 20.9036 46.8444 21.1446 45.748 21.1446C44.0854 21.1446 42.8023 20.6747 41.8986 19.7349C40.995 18.7952 40.5432 17.4819 40.5432 15.7952C40.5432 14.0964 40.977 12.7952 41.8444 11.8916C42.7239 10.9759 43.995 10.5181 45.6577 10.5181C46.8746 10.5181 47.8625 10.7651 48.6215 11.259C49.3806 11.741 49.9107 12.4518 50.2119 13.3916L48.3143 13.9157C48.1577 13.3976 47.8384 12.988 47.3565 12.6867C46.8866 12.3735 46.3324 12.2169 45.6938 12.2169C44.7179 12.2169 43.977 12.5241 43.4709 13.1386C42.9649 13.741 42.7119 14.6265 42.7119 15.7952C42.7119 16.9759 42.9709 17.8795 43.489 18.506C44.0191 19.1325 44.7721 19.4458 45.748 19.4458ZM56.1319 21V10.1386H58.1921V21H56.1319ZM62.2973 21.1446C61.5263 21.1446 60.9238 20.9398 60.4901 20.5301C60.0684 20.1084 59.8576 19.5181 59.8576 18.759C59.8576 17.9398 60.1226 17.3193 60.6528 16.8976C61.1949 16.4639 61.972 16.241 62.9841 16.2289L64.701 16.1928V15.7952C64.701 15.2771 64.6106 14.8916 64.4299 14.6386C64.2491 14.3855 63.954 14.259 63.5443 14.259C63.1588 14.259 62.8757 14.3494 62.6949 14.5301C62.5263 14.6988 62.4178 14.9819 62.3696 15.3795L60.219 15.2711C60.3516 14.5 60.701 13.9157 61.2672 13.5181C61.8455 13.1205 62.6347 12.9217 63.6347 12.9217C64.6347 12.9217 65.4058 13.1687 65.9479 13.6627C66.4901 14.1566 66.7612 14.8614 66.7612 15.7771V18.6506C66.7612 19.0964 66.8094 19.4036 66.9058 19.5723C67.0022 19.741 67.1708 19.8253 67.4118 19.8253C67.5684 19.8253 67.719 19.8133 67.8636 19.7892V20.8916C67.7431 20.9157 67.6347 20.9458 67.5383 20.9819C67.4419 21.006 67.3395 21.0241 67.2311 21.0361C67.1347 21.0482 67.0323 21.0602 66.9238 21.0723C66.8154 21.0843 66.6889 21.0904 66.5443 21.0904C66.0263 21.0904 65.6407 20.9639 65.3877 20.7108C65.1467 20.4578 65.0022 20.0843 64.954 19.5904H64.9178C64.3275 20.6265 63.454 21.1446 62.2973 21.1446ZM64.701 17.3313L63.6347 17.3494C63.1528 17.3735 62.8094 17.4277 62.6046 17.512C62.4118 17.5964 62.2612 17.7289 62.1528 17.9096C62.0564 18.0783 62.0082 18.3072 62.0082 18.5964C62.0082 18.9699 62.0925 19.253 62.2612 19.4458C62.4419 19.6265 62.6769 19.7169 62.966 19.7169C63.2913 19.7169 63.5865 19.6265 63.8516 19.4458C64.1166 19.2651 64.3214 19.0241 64.466 18.7229C64.6226 18.4096 64.701 18.0783 64.701 17.7289V17.3313ZM74.1195 21V16.5542C74.1195 15.1566 73.6496 14.4578 72.7099 14.4578C72.2159 14.4578 71.8123 14.6747 71.499 15.1084C71.1978 15.5301 71.0472 16.0783 71.0472 16.753V21H68.987V14.8554C68.987 14.4337 68.981 14.0843 68.9689 13.8072C68.9569 13.5301 68.9448 13.2831 68.9328 13.0663H70.8846C70.8966 13.1627 70.9147 13.4157 70.9388 13.8253C70.9749 14.2229 70.993 14.5 70.993 14.6566H71.0111C71.2882 14.0542 71.6376 13.6145 72.0593 13.3373C72.481 13.0602 72.981 12.9217 73.5593 12.9217C74.4027 12.9217 75.0472 13.1807 75.493 13.6988C75.9509 14.2169 76.1798 14.9759 76.1798 15.9759V21H74.1195ZM81.6329 24.1807C80.6691 24.1807 79.892 23.994 79.3016 23.6205C78.7112 23.259 78.3438 22.7349 78.1992 22.0482L80.2594 21.8133C80.3317 22.1265 80.4883 22.3735 80.7293 22.5542C80.9703 22.7349 81.2896 22.8253 81.6871 22.8253C82.2534 22.8253 82.6691 22.6506 82.9341 22.3012C83.1992 21.9518 83.3317 21.4277 83.3317 20.7289V20.3133L83.3498 19.5361H83.3317C82.8739 20.512 82.0245 20.994 80.7835 20.9819C79.8558 20.9819 79.139 20.6386 78.6329 19.9518C78.1269 19.253 77.8739 18.259 77.8739 16.9699C77.8739 15.6807 78.1329 14.6867 78.651 13.988C79.1811 13.2771 79.9402 12.9217 80.9281 12.9217C82.0847 12.9217 82.8859 13.3976 83.3317 14.3494H83.3679C83.3679 14.1807 83.3799 13.9518 83.404 13.6627C83.4281 13.3614 83.4522 13.1627 83.4763 13.0663H85.41C85.3859 13.5964 85.3739 14.2108 85.3739 14.9096V20.7651C85.3739 21.8976 85.0546 22.747 84.4161 23.3133C83.7775 23.8916 82.8498 24.1807 81.6329 24.1807ZM83.3498 16.9337C83.3498 16.1145 83.2052 15.4759 82.9161 15.0181C82.6269 14.5602 82.2112 14.3313 81.6691 14.3313C80.5727 14.3313 80.0245 15.2108 80.0245 16.9699C80.0245 18.6928 80.5667 19.5542 81.651 19.5542C82.1932 19.5542 82.6088 19.3313 82.898 18.8855C83.1992 18.4277 83.3498 17.7771 83.3498 16.9337ZM89.562 13.0663V17.512C89.562 18.9096 90.0319 19.6084 90.9716 19.6084C91.4656 19.6084 91.8632 19.3976 92.1644 18.9759C92.4776 18.5422 92.6343 17.994 92.6343 17.3313V13.0663H94.6945V19.2289C94.6945 19.9036 94.7126 20.494 94.7487 21H92.7969C92.7367 20.3012 92.7066 19.7771 92.7066 19.4277H92.6704C92.3933 20.0301 92.0439 20.4699 91.6222 20.747C91.2005 21.012 90.7005 21.1446 90.1222 21.1446C89.2789 21.1446 88.6283 20.8916 88.1704 20.3855C87.7246 19.8675 87.5017 19.1084 87.5017 18.1084V13.0663H89.562ZM98.7742 21.1446C98.0031 21.1446 97.4007 20.9398 96.9669 20.5301C96.5453 20.1084 96.3344 19.5181 96.3344 18.759C96.3344 17.9398 96.5995 17.3193 97.1296 16.8976C97.6718 16.4639 98.4489 16.241 99.4609 16.2289L101.178 16.1928V15.7952C101.178 15.2771 101.087 14.8916 100.907 14.6386C100.726 14.3855 100.431 14.259 100.021 14.259C99.6356 14.259 99.3525 14.3494 99.1718 14.5301C99.0031 14.6988 98.8947 14.9819 98.8465 15.3795L96.6959 15.2711C96.8284 14.5 97.1778 13.9157 97.7441 13.5181C98.3224 13.1205 99.1115 12.9217 100.112 12.9217C101.112 12.9217 101.883 13.1687 102.425 13.6627C102.967 14.1566 103.238 14.8614 103.238 15.7771V18.6506C103.238 19.0964 103.286 19.4036 103.383 19.5723C103.479 19.741 103.648 19.8253 103.889 19.8253C104.045 19.8253 104.196 19.8133 104.34 19.7892V20.8916C104.22 20.9157 104.112 20.9458 104.015 20.9819C103.919 21.006 103.816 21.0241 103.708 21.0361C103.612 21.0482 103.509 21.0602 103.401 21.0723C103.292 21.0843 103.166 21.0904 103.021 21.0904C102.503 21.0904 102.118 20.9639 101.865 20.7108C101.624 20.4578 101.479 20.0843 101.431 19.5904H101.395C100.804 20.6265 99.9308 21.1446 98.7742 21.1446ZM101.178 17.3313L100.112 17.3494C99.6296 17.3735 99.2862 17.4277 99.0814 17.512C98.8886 17.5964 98.738 17.7289 98.6296 17.9096C98.5332 18.0783 98.485 18.3072 98.485 18.5964C98.485 18.9699 98.5694 19.253 98.738 19.4458C98.9188 19.6265 99.1537 19.7169 99.4428 19.7169C99.7682 19.7169 100.063 19.6265 100.328 19.4458C100.593 19.2651 100.798 19.0241 100.943 18.7229C101.099 18.4096 101.178 18.0783 101.178 17.7289V17.3313ZM108.789 24.1807C107.825 24.1807 107.048 23.994 106.458 23.6205C105.867 23.259 105.5 22.7349 105.355 22.0482L107.416 21.8133C107.488 22.1265 107.645 22.3735 107.886 22.5542C108.126 22.7349 108.446 22.8253 108.843 22.8253C109.41 22.8253 109.825 22.6506 110.09 22.3012C110.355 21.9518 110.488 21.4277 110.488 20.7289V20.3133L110.506 19.5361H110.488C110.03 20.512 109.181 20.994 107.94 20.9819C107.012 20.9819 106.295 20.6386 105.789 19.9518C105.283 19.253 105.03 18.259 105.03 16.9699C105.03 15.6807 105.289 14.6867 105.807 13.988C106.337 13.2771 107.096 12.9217 108.084 12.9217C109.241 12.9217 110.042 13.3976 110.488 14.3494H110.524C110.524 14.1807 110.536 13.9518 110.56 13.6627C110.584 13.3614 110.608 13.1627 110.633 13.0663H112.566C112.542 13.5964 112.53 14.2108 112.53 14.9096V20.7651C112.53 21.8976 112.211 22.747 111.572 23.3133C110.934 23.8916 110.006 24.1807 108.789 24.1807ZM110.506 16.9337C110.506 16.1145 110.361 15.4759 110.072 15.0181C109.783 14.5602 109.367 14.3313 108.825 14.3313C107.729 14.3313 107.181 15.2108 107.181 16.9699C107.181 18.6928 107.723 19.5542 108.807 19.5542C109.349 19.5542 109.765 19.3313 110.054 18.8855C110.355 18.4277 110.506 17.7771 110.506 16.9337ZM118.019 21.1446C116.827 21.1446 115.911 20.7952 115.272 20.0964C114.634 19.3855 114.315 18.3554 114.315 17.006C114.315 15.6928 114.64 14.6867 115.29 13.988C115.941 13.2771 116.863 12.9217 118.056 12.9217C119.188 12.9217 120.056 13.3012 120.658 14.0602C121.26 14.8193 121.562 15.9217 121.562 17.3675V17.4398H116.483C116.483 18.2108 116.622 18.7952 116.899 19.1928C117.188 19.5783 117.598 19.7711 118.128 19.7711C118.851 19.7711 119.309 19.4578 119.501 18.8313L121.453 18.994C120.887 20.4277 119.742 21.1446 118.019 21.1446ZM118.019 14.2229C117.537 14.2229 117.164 14.3916 116.899 14.7289C116.646 15.0663 116.513 15.5361 116.501 16.1386H119.574C119.537 15.5 119.381 15.0241 119.104 14.7108C118.839 14.3855 118.477 14.2229 118.019 14.2229Z" fill="white"/>
<path d="M126 0H5C2.23858 0 0 2.23858 0 5V27C0 29.7614 2.23858 32 5 32H126C128.761 32 131 29.7614 131 27V5C131 2.23858 128.761 0 126 0Z" fill="url(#paint0_linear_22_2)"/>
<path d="M21.457 11.9367L20.0898 12.8891C19.1617 11.6437 17.6969 10.8383 16.0125 10.8383C14.3031 10.8383 12.7406 11.6687 11.7641 12.9133C11.1289 13.7437 10.7633 14.7445 10.7633 15.8187C10.7633 16.893 11.1297 17.8937 11.7641 18.7242C12.7406 19.9695 14.3031 20.7992 16.0125 20.7992C17.6969 20.7992 19.1617 19.9937 20.0898 18.7484L21.457 19.7008C20.2359 21.3609 18.2586 22.4109 16.0367 22.4109C13.7906 22.4109 11.6906 21.3367 10.4211 19.6766C9.56641 18.5781 9.07812 17.2352 9.07812 15.8187C9.07812 14.4023 9.56641 13.0602 10.4211 11.9609C11.6906 10.3008 13.7906 9.22656 16.0367 9.22656C18.2586 9.22656 20.2359 10.2766 21.457 11.9367Z" fill="black"/>
<defs>
<linearGradient id="paint0_linear_22_2" x1="0" y1="0" x2="0" y2="32" gradientUnits="userSpaceOnUse">
<stop stop-color="#BBBBBB" stop-opacity="0.1"/>
<stop offset="1" stop-opacity="0.1"/>
</linearGradient>
</defs>
</svg>
