<svg width="100" height="32" viewBox="0 0 100 32" fill="none" xmlns="http://www.w3.org/2000/svg">
<path d="M95 0H31V32H95C97.7614 32 100 29.7614 100 27V5C100 2.23858 97.7614 0 95 0Z" fill="#0F1418"/>
<path d="M31 0H5C2.23858 0 0 2.23858 0 5V27C0 29.7614 2.23858 32 5 32H31V0Z" fill="white"/>
<g clip-path="url(#clip0_20_4)">
<path d="M27.1826 11.3534C27.1824 10.9342 27.0928 10.5637 26.9114 10.2458C26.7333 9.93314 26.4666 9.6711 26.1088 9.46391C23.1556 7.76105 20.1994 6.06339 17.2471 4.35878C16.4512 3.89928 15.6795 3.91603 14.8895 4.38213C13.714 5.07538 7.82871 8.44718 6.07498 9.46296C5.35274 9.88106 5.0013 10.5209 5.00113 11.3526C5 14.7772 5.00113 18.2017 5 21.6263C5.00017 22.0364 5.08602 22.3996 5.25935 22.7128C5.43754 23.0349 5.708 23.3041 6.07402 23.516C7.82784 24.5318 13.7139 27.9033 14.8891 28.5967C15.6795 29.0631 16.4512 29.0797 17.2474 28.6201C20.1998 26.9154 23.1561 25.2178 26.1098 23.5149C26.4758 23.3032 26.7463 23.0337 26.9245 22.7119C27.0975 22.3987 27.1835 22.0355 27.1837 21.6254C27.1837 21.6254 27.1837 14.7781 27.1826 11.3534Z" fill="#5C8DBC"/>
<path d="M16.1258 16.4562L5.25934 22.7128C5.43753 23.0349 5.70799 23.3042 6.07401 23.5161C7.82783 24.5318 13.7139 27.9034 14.8891 28.5968C15.6795 29.0632 16.4512 29.0798 17.2474 28.6202C20.1998 26.9155 23.1561 25.2179 26.1098 23.515C26.4758 23.3032 26.7463 23.0338 26.9244 22.712L16.1258 16.4562Z" fill="#1A4674"/>
<path d="M12.9073 18.3095C13.5396 19.4133 14.7283 20.1579 16.0919 20.1579C17.4639 20.1579 18.6593 19.4039 19.2884 18.2882L16.1258 16.4562L12.9073 18.3095Z" fill="#1A4674"/>
<path d="M27.1826 11.3535C27.1824 10.9342 27.0928 10.5638 26.9114 10.2458L16.1258 16.4562L26.9245 22.712C27.0975 22.3988 27.1835 22.0356 27.1837 21.6254C27.1837 21.6254 27.1837 14.7781 27.1826 11.3535Z" fill="#1B598E"/>
<path d="M26.5888 16.9033H25.745V17.7473H24.901V16.9033H24.0572V16.0595H24.901V15.2157H25.745V16.0595H26.5888V16.9033ZM23.5097 16.9033H22.6659V17.7473H21.8221V16.9033H20.9783V16.0595H21.8221V15.2157H22.6659V16.0595H23.5097V16.9033Z" fill="white"/>
<path d="M19.2884 18.2882C18.6593 19.4039 17.4639 20.1579 16.0919 20.1579C14.7283 20.1579 13.5396 19.4133 12.9073 18.3094C12.5896 17.7555 12.4228 17.128 12.4235 16.4895C12.4235 14.4636 14.0659 12.8212 16.0919 12.8212C17.4467 12.8212 18.6291 13.5564 19.2645 14.649L22.4709 12.8027C21.1965 10.6027 18.8171 9.12268 16.0919 9.12268C12.0232 9.12268 8.72498 12.421 8.72498 16.4895C8.72498 17.8242 9.08006 19.0759 9.70066 20.1556C10.9719 22.3672 13.358 23.8564 16.0919 23.8564C18.8307 23.8564 21.2206 22.3612 22.49 20.1431L19.2884 18.2882Z" fill="white"/>
</g>
<path d="M57.584 21.18C56.784 21.18 56.119 21.08 55.589 20.88C55.069 20.68 54.654 20.37 54.344 19.95C54.044 19.52 53.829 18.975 53.699 18.315C53.579 17.645 53.519 16.84 53.519 15.9C53.519 14.96 53.579 14.155 53.699 13.485C53.829 12.815 54.044 12.27 54.344 11.85C54.654 11.43 55.074 11.12 55.604 10.92C56.144 10.72 56.829 10.62 57.659 10.62C57.979 10.62 58.319 10.64 58.679 10.68C59.039 10.71 59.389 10.755 59.729 10.815C60.079 10.875 60.379 10.935 60.629 10.995L60.569 12.855C60.369 12.825 60.124 12.795 59.834 12.765C59.544 12.735 59.244 12.71 58.934 12.69C58.634 12.66 58.349 12.645 58.079 12.645C57.629 12.645 57.264 12.7 56.984 12.81C56.704 12.92 56.484 13.105 56.324 13.365C56.174 13.615 56.069 13.945 56.009 14.355C55.959 14.765 55.934 15.28 55.934 15.9C55.934 16.51 55.959 17.025 56.009 17.445C56.069 17.855 56.174 18.185 56.324 18.435C56.484 18.685 56.704 18.865 56.984 18.975C57.264 19.085 57.634 19.14 58.094 19.14C58.494 19.14 58.929 19.12 59.399 19.08C59.879 19.04 60.274 19.005 60.584 18.975L60.629 20.82C60.399 20.87 60.114 20.925 59.774 20.985C59.444 21.045 59.084 21.09 58.694 21.12C58.314 21.16 57.944 21.18 57.584 21.18ZM64.4103 20.67V18.165H61.9503V16.26H64.4103V13.77H66.3303V16.26H68.8053V18.165H66.3303V20.67H64.4103ZM72.9106 20.67V18.165H70.4506V16.26H72.9106V13.77H74.8306V16.26H77.3056V18.165H74.8306V20.67H72.9106Z" fill="white"/>
<path d="M95 0H5C2.23858 0 0 2.23858 0 5V27C0 29.7614 2.23858 32 5 32H95C97.7614 32 100 29.7614 100 27V5C100 2.23858 97.7614 0 95 0Z" fill="url(#paint0_linear_20_4)"/>
<defs>
<linearGradient id="paint0_linear_20_4" x1="0" y1="0" x2="0" y2="32" gradientUnits="userSpaceOnUse">
<stop stop-color="#BBBBBB" stop-opacity="0.1"/>
<stop offset="1" stop-opacity="0.1"/>
</linearGradient>
<clipPath id="clip0_20_4">
<rect width="22.22" height="25" fill="white" transform="translate(5 4)"/>
</clipPath>
</defs>
</svg>
