<svg width="90" height="32" viewBox="0 0 90 32" fill="none" xmlns="http://www.w3.org/2000/svg">
<path d="M85 0H31V32H85C87.7614 32 90 29.7614 90 27V5C90 2.23858 87.7614 0 85 0Z" fill="#0F1418"/>
<path d="M5 0.5H30.5V31.5H5C2.51472 31.5 0.5 29.4853 0.5 27V5C0.5 2.51472 2.51472 0.5 5 0.5Z" fill="white" stroke="#1C2125"/>
<g clip-path="url(#clip0_22_2)">
<path d="M22.6445 16.0019C22.6445 11.7812 19.2191 8.35583 14.9985 8.35583C10.7779 8.35583 7.35248 11.7812 7.35248 16.0019C7.35248 20.2224 10.7779 23.6479 14.9985 23.6479C19.2191 23.6479 22.6445 20.2224 22.6445 16.0019Z" fill="#00007D"/>
<path d="M20.4059 12.834C20.4059 11.5978 19.4026 10.5945 18.1664 10.5945C16.9302 10.5945 15.9269 11.5978 15.9269 12.834C15.9269 14.0701 16.9302 15.0734 18.1664 15.0734C19.4026 15.0734 20.4059 14.0701 20.4059 12.834Z" fill="white"/>
<path d="M24.884 8.3558C24.884 7.11963 23.8807 6.11633 22.6445 6.11633C21.4083 6.11633 20.405 7.11963 20.405 8.3558C20.405 9.59198 21.4083 10.5953 22.6445 10.5953C23.8807 10.5953 24.884 9.59198 24.884 8.3558Z" fill="#00007D"/>
<path d="M9.78516 14.8871H10.4538V19.235H12.9302V19.823H9.78516V14.8871Z" fill="white"/>
<path d="M14.1364 16.2245V18.6135C14.1364 18.7972 14.1648 18.9473 14.2215 19.0637C14.3262 19.2788 14.5215 19.3863 14.8073 19.3863C15.2174 19.3863 15.4966 19.1981 15.645 18.8218C15.7257 18.6202 15.7661 18.3436 15.7661 17.9919V16.2245H16.3709V19.8231H15.7997L15.8064 19.2922C15.7294 19.4289 15.6337 19.5442 15.5194 19.6383C15.293 19.8265 15.0183 19.9206 14.6952 19.9206C14.1918 19.9206 13.849 19.7492 13.6666 19.4065C13.5677 19.2228 13.5182 18.9775 13.5182 18.6706V16.2245H14.1364Z" fill="white"/>
<path d="M19.2875 17.6452C19.4263 17.6274 19.5193 17.5692 19.5663 17.4708C19.5932 17.4169 19.6066 17.3393 19.6066 17.2381C19.6066 17.0312 19.5334 16.8811 19.387 16.7878C19.2405 16.6945 19.0309 16.6478 18.7583 16.6478C18.443 16.6478 18.2194 16.7334 18.0875 16.9044C18.0138 16.999 17.9658 17.1397 17.9434 17.3265H17.3789C17.3901 16.8818 17.5338 16.5723 17.8101 16.3982C18.0864 16.2241 18.407 16.1371 18.7716 16.1371C19.1945 16.1371 19.5379 16.2177 19.802 16.379C20.0637 16.5403 20.1946 16.7912 20.1946 17.1317V19.205C20.1946 19.2677 20.2075 19.3181 20.2333 19.3561C20.259 19.3941 20.3133 19.4131 20.3962 19.4131C20.4231 19.4131 20.4534 19.4115 20.487 19.4081C20.5206 19.4048 20.5564 19.3997 20.5945 19.393V19.8399C20.5004 19.8668 20.4287 19.8836 20.3794 19.8903C20.3301 19.897 20.2629 19.9004 20.1778 19.9004C19.9695 19.9004 19.8183 19.8264 19.7242 19.6786C19.6749 19.6003 19.6402 19.4894 19.62 19.3461C19.4968 19.5073 19.3199 19.6473 19.0892 19.766C18.8584 19.8846 18.6041 19.944 18.3264 19.944C17.9926 19.944 17.7199 19.8428 17.5083 19.6403C17.2966 19.4379 17.1907 19.1845 17.1907 18.8802C17.1907 18.5469 17.2949 18.2885 17.5032 18.105C17.7115 17.9216 17.9848 17.8086 18.3231 17.766L19.2875 17.6452ZM18.0139 19.2791C18.1416 19.3797 18.2928 19.4299 18.4676 19.4299C18.6803 19.4299 18.8864 19.3807 19.0858 19.2824C19.4218 19.1191 19.5898 18.8518 19.5898 18.4806V17.9941C19.516 18.0414 19.421 18.0807 19.3048 18.1121C19.1885 18.1436 19.0745 18.166 18.9628 18.1794L18.5972 18.2264C18.3781 18.2555 18.2134 18.3013 18.103 18.3639C17.9159 18.469 17.8224 18.6366 17.8224 18.8668C17.8224 19.0411 17.8863 19.1785 18.0139 19.2791Z" fill="white"/>
<path d="M15.3541 25.9941L15.3461 25.7649C15.6296 25.755 15.9154 25.7326 16.1955 25.6984L16.2233 25.9261C15.9367 25.9611 15.6442 25.984 15.3541 25.9941ZM14.4821 25.9871C14.1925 25.9722 13.9004 25.9446 13.614 25.9048L13.6455 25.6776C13.9254 25.7164 14.2108 25.7435 14.4938 25.758L14.4821 25.9871ZM17.0836 25.7826L17.036 25.5582C17.3129 25.4995 17.5904 25.4277 17.8608 25.3449L17.928 25.5643C17.6512 25.649 17.3671 25.7224 17.0836 25.7826ZM12.7562 25.7471C12.474 25.6824 12.1912 25.6042 11.9156 25.5149L11.9863 25.2966C12.2556 25.384 12.5319 25.4603 12.8075 25.5236L12.7562 25.7471ZM18.75 25.2726L18.6638 25.06C18.9258 24.9539 19.1864 24.8347 19.4385 24.7059L19.5429 24.9101C19.2849 25.042 19.0181 25.164 18.75 25.2726ZM11.0981 25.2094C10.8315 25.0962 10.5666 24.9698 10.3106 24.8335L10.4184 24.631C10.6685 24.7641 10.9273 24.8877 11.1877 24.9983L11.0981 25.2094ZM20.3013 24.4797L20.1795 24.2853C20.4192 24.135 20.6552 23.9724 20.8812 23.8018L21.0194 23.9848C20.7882 24.1594 20.5466 24.3259 20.3013 24.4797ZM9.55915 24.3904C9.31649 24.2326 9.0776 24.0621 8.84914 23.8836L8.99038 23.7028C9.21363 23.8773 9.44704 24.0439 9.68417 24.1981L9.55915 24.3904ZM21.6919 23.4295L21.5383 23.2592C21.7486 23.0696 21.9531 22.8685 22.1461 22.6616L22.3139 22.818C22.1164 23.0298 21.9071 23.2355 21.6919 23.4295ZM8.18582 23.3171C7.97391 23.1196 7.76806 22.9105 7.57404 22.6954L7.74434 22.5418C7.93395 22.7519 8.13509 22.9563 8.34219 23.1493L8.18582 23.3171ZM22.8806 22.155L22.6999 22.0137C22.8745 21.7905 23.0412 21.5572 23.1955 21.3201L23.3878 21.4452C23.2299 21.6878 23.0592 21.9267 22.8806 22.155ZM7.01841 22.0232C6.8436 21.792 6.67699 21.5505 6.52322 21.3054L6.71752 21.1835C6.86778 21.4229 7.03059 21.659 7.20138 21.8849L7.01841 22.0232ZM23.8313 20.694L23.6289 20.5861C23.7621 20.3361 23.8858 20.0773 23.9965 19.817L24.2076 19.9067C24.0943 20.1732 23.9677 20.4381 23.8313 20.694ZM6.09243 20.5472C5.96043 20.2893 5.83834 20.0226 5.72952 19.7544L5.94208 19.6682C6.04838 19.9302 6.16766 20.1908 6.29661 20.4427L6.09243 20.5472ZM24.5134 19.0894L24.2952 19.0185C24.3826 18.7495 24.4591 18.4732 24.5226 18.1974L24.7461 18.2488C24.6812 18.5312 24.6028 18.814 24.5134 19.0894ZM5.43746 18.9325C5.35256 18.6557 5.27896 18.3716 5.2187 18.0882L5.44305 18.0405C5.50193 18.3173 5.57382 18.5948 5.65676 18.8653L5.43746 18.9325ZM24.9042 17.3911L24.677 17.3595C24.716 17.0798 24.7432 16.7944 24.7578 16.5113L24.9869 16.5231C24.9719 16.8128 24.9441 17.1048 24.9042 17.3911ZM5.0748 17.2281C5.03963 16.9413 5.01659 16.6488 5.00635 16.3588L5.2356 16.3508C5.24559 16.6341 5.2681 16.9199 5.30246 17.2002L5.0748 17.2281ZM24.765 15.659C24.7552 15.3762 24.7327 15.0903 24.6982 14.8093L24.9258 14.7813C24.9611 15.069 24.9842 15.3616 24.9943 15.651L24.765 15.659ZM5.24206 15.4985L5.01298 15.4869C5.02766 15.1972 5.05518 14.9051 5.0948 14.6187L5.32202 14.6502C5.28331 14.93 5.2564 15.2154 5.24206 15.4985ZM24.5575 13.9686C24.4986 13.6917 24.4268 13.4141 24.344 13.1434L24.5634 13.0763C24.6481 13.3534 24.7216 13.6375 24.7818 13.9209L24.5575 13.9686ZM5.47564 13.8121L5.25205 13.7609C5.31672 13.4786 5.39473 13.1957 5.48394 12.9201L5.70217 12.9908C5.61503 13.2599 5.53881 13.5363 5.47564 13.8121ZM24.0595 12.3399C23.9534 12.0774 23.8345 11.8164 23.706 11.5643L23.9104 11.4601C24.0419 11.7182 24.1636 11.9853 24.2722 12.254L24.0595 12.3399ZM6.00016 12.192L5.78897 12.1025C5.90202 11.8359 6.02835 11.5709 6.16447 11.3149L6.367 11.4226C6.23404 11.6727 6.11059 11.9316 6.00016 12.192ZM6.79963 10.6881L6.60726 10.5632C6.76495 10.3203 6.93537 10.0814 7.11374 9.85291L7.29454 9.99407C7.12024 10.2173 6.95374 10.4508 6.79963 10.6881ZM7.84774 9.3456L7.67984 9.18932C7.87718 8.97733 8.08624 8.77137 8.30119 8.57724L8.45494 8.74746C8.24489 8.9372 8.04058 9.13842 7.84774 9.3456ZM9.11159 8.20421L8.97317 8.0213C9.20426 7.84643 9.44569 7.67971 9.69076 7.52577L9.81279 7.72001C9.5733 7.87042 9.33739 8.03333 9.11159 8.20421ZM20.322 7.80584L20.3095 7.79773L20.4343 7.60522L20.4464 7.61308L20.322 7.80584ZM19.5745 7.36622C19.3244 7.23369 19.0654 7.11063 18.8047 7.00043L18.894 6.78917C19.1608 6.90193 19.4259 7.02788 19.6819 7.16353L19.5745 7.36622ZM10.5533 7.2987L10.4487 7.09456C10.7066 6.96239 10.9733 6.84018 11.2413 6.73128L11.3277 6.94381C11.0658 7.05019 10.8053 7.1696 10.5533 7.2987ZM18.0059 6.70313C17.7365 6.61604 17.4601 6.5398 17.1842 6.47654L17.2355 6.25297C17.5178 6.31771 17.8008 6.39574 18.0765 6.48486L18.0059 6.70313ZM12.1304 6.65809L12.0631 6.4388C12.3398 6.3538 12.6239 6.28007 12.9073 6.21963L12.9551 6.44396C12.6782 6.50301 12.4008 6.57504 12.1304 6.65809ZM16.3459 6.32241C16.0654 6.28345 15.7799 6.25637 15.4973 6.24197L15.5089 6.01289C15.7982 6.02763 16.0905 6.05534 16.3775 6.09523L16.3459 6.32241ZM13.7954 6.30301L13.7673 6.07532C14.0541 6.04003 14.3465 6.01686 14.6365 6.00647L14.6448 6.2357C14.3613 6.24586 14.0755 6.2685 13.7954 6.30301Z" fill="#929292"/>
</g>
<path d="M48.0239 21V10.6807H50.1745V19.3373H55.7047V21H48.0239ZM59.3144 13.0663V17.512C59.3144 18.9096 59.7843 19.6084 60.7241 19.6084C61.2181 19.6084 61.6157 19.3976 61.9169 18.9759C62.2301 18.5422 62.3867 17.994 62.3867 17.3313V13.0663H64.447V19.2289C64.447 19.9036 64.465 20.494 64.5012 21H62.5494C62.4891 20.3012 62.459 19.7771 62.459 19.4277H62.4229C62.1458 20.0301 61.7964 20.4699 61.3747 20.747C60.953 21.012 60.453 21.1446 59.8747 21.1446C59.0313 21.1446 58.3807 20.8916 57.9229 20.3855C57.4771 19.8675 57.2542 19.1084 57.2542 18.1084V13.0663H59.3144ZM68.5266 21.1446C67.7556 21.1446 67.1531 20.9398 66.7194 20.5301C66.2977 20.1084 66.0869 19.5181 66.0869 18.759C66.0869 17.9398 66.3519 17.3193 66.8821 16.8976C67.4242 16.4639 68.2013 16.241 69.2134 16.2289L70.9303 16.1928V15.7952C70.9303 15.2771 70.8399 14.8916 70.6592 14.6386C70.4784 14.3855 70.1833 14.259 69.7736 14.259C69.3881 14.259 69.105 14.3494 68.9242 14.5301C68.7556 14.6988 68.6471 14.9819 68.5989 15.3795L66.4483 15.2711C66.5809 14.5 66.9303 13.9157 67.4965 13.5181C68.0748 13.1205 68.864 12.9217 69.864 12.9217C70.864 12.9217 71.6351 13.1687 72.1772 13.6627C72.7194 14.1566 72.9905 14.8614 72.9905 15.7771V18.6506C72.9905 19.0964 73.0387 19.4036 73.1351 19.5723C73.2315 19.741 73.4001 19.8253 73.6411 19.8253C73.7977 19.8253 73.9483 19.8133 74.0929 19.7892V20.8916C73.9724 20.9157 73.864 20.9458 73.7676 20.9819C73.6712 21.006 73.5688 21.0241 73.4604 21.0361C73.364 21.0482 73.2616 21.0602 73.1531 21.0723C73.0447 21.0843 72.9182 21.0904 72.7736 21.0904C72.2556 21.0904 71.87 20.9639 71.617 20.7108C71.376 20.4578 71.2315 20.0843 71.1833 19.5904H71.1471C70.5568 20.6265 69.6833 21.1446 68.5266 21.1446ZM70.9303 17.3313L69.864 17.3494C69.3821 17.3735 69.0387 17.4277 68.8339 17.512C68.6411 17.5964 68.4905 17.7289 68.3821 17.9096C68.2857 18.0783 68.2375 18.3072 68.2375 18.5964C68.2375 18.9699 68.3218 19.253 68.4905 19.4458C68.6712 19.6265 68.9062 19.7169 69.1953 19.7169C69.5206 19.7169 69.8158 19.6265 70.0809 19.4458C70.3459 19.2651 70.5507 19.0241 70.6953 18.7229C70.8519 18.4096 70.9303 18.0783 70.9303 17.7289V17.3313Z" fill="white"/>
<path d="M85 0H5C2.23858 0 0 2.23858 0 5V27C0 29.7614 2.23858 32 5 32H85C87.7614 32 90 29.7614 90 27V5C90 2.23858 87.7614 0 85 0Z" fill="url(#paint0_linear_22_2)"/>
<defs>
<linearGradient id="paint0_linear_22_2" x1="0" y1="0" x2="0" y2="32" gradientUnits="userSpaceOnUse">
<stop stop-color="#BBBBBB" stop-opacity="0.1"/>
<stop offset="1" stop-opacity="0.1"/>
</linearGradient>
<clipPath id="clip0_22_2">
<rect width="20" height="20" fill="white" transform="translate(5 6)"/>
</clipPath>
</defs>
</svg>
