<svg width="112" height="32" viewBox="0 0 112 32" fill="none" xmlns="http://www.w3.org/2000/svg">
<path d="M107 0H31V32H107C109.761 32 112 29.7614 112 27V5C112 2.23858 109.761 0 107 0Z" fill="#0F1418"/>
<path d="M5 0.5H30.5V31.5H5C2.51472 31.5 0.5 29.4853 0.5 27V5C0.5 2.51472 2.51472 0.5 5 0.5Z" fill="white" stroke="#1C2125"/>
<g clip-path="url(#clip0_22_2)">
<path d="M4 5.71919C4 4.77025 4.79444 4 5.77375 4H26.2263C27.2059 4 28 4.77025 28 5.71919V26.2811C28 27.2303 27.2059 28 26.2263 28H5.77375C4.79453 28 4 27.2304 4 26.2814V5.71891V5.71919Z" fill="#006699"/>
<path d="M11.2934 24.0848V13.28H7.70198V24.0848H11.2937H11.2934ZM9.49842 11.805C10.7505 11.805 11.5301 10.9753 11.5301 9.93844C11.5066 8.87794 10.7505 8.07141 9.52223 8.07141C8.29308 8.07141 7.4903 8.87794 7.4903 9.93835C7.4903 10.9752 8.26955 11.8049 9.47489 11.8049H9.49814L9.49842 11.805ZM13.2812 24.0848H16.8723V18.0516C16.8723 17.7291 16.8958 17.4057 16.9906 17.1754C17.2501 16.5299 17.841 15.8618 18.8334 15.8618C20.1326 15.8618 20.6526 16.8525 20.6526 18.3052V24.0848H24.2436V17.8897C24.2436 14.571 22.4721 13.0267 20.1093 13.0267C18.1722 13.0267 17.3214 14.1094 16.8487 14.8468H16.8726V13.2803H13.2814C13.3283 14.294 13.2811 24.0852 13.2811 24.0852L13.2812 24.0848Z" fill="white"/>
</g>
<path d="M41.1057 21V10.6807H43.2563V19.3373H48.7864V21H41.1057ZM50.4625 11.6386V10.1386H52.5227V11.6386H50.4625ZM50.4625 21V13.0663H52.5227V21H50.4625ZM59.9351 21V16.5542C59.9351 15.1566 59.4653 14.4578 58.5255 14.4578C58.0315 14.4578 57.6279 14.6747 57.3147 15.1084C57.0134 15.5301 56.8628 16.0783 56.8628 16.753V21H54.8026V14.8554C54.8026 14.4337 54.7966 14.0843 54.7845 13.8072C54.7725 13.5301 54.7604 13.2831 54.7484 13.0663H56.7002C56.7122 13.1627 56.7303 13.4157 56.7544 13.8253C56.7906 14.2229 56.8086 14.5 56.8086 14.6566H56.8267C57.1038 14.0542 57.4532 13.6145 57.8749 13.3373C58.2966 13.0602 58.7966 12.9217 59.3749 12.9217C60.2183 12.9217 60.8628 13.1807 61.3086 13.6988C61.7665 14.2169 61.9954 14.9759 61.9954 15.9759V21H59.9351ZM69.1835 21L67.069 17.4036L66.1835 18.0181V21H64.1232V10.1386H66.1835V16.3554L69.0028 13.0663H71.2256L68.4425 16.1747L71.4244 21H69.1835ZM75.8731 21.1446C74.6804 21.1446 73.7647 20.7952 73.1261 20.0964C72.4876 19.3855 72.1683 18.3554 72.1683 17.006C72.1683 15.6928 72.4936 14.6867 73.1442 13.988C73.7948 13.2771 74.7165 12.9217 75.9093 12.9217C77.0418 12.9217 77.9093 13.3012 78.5117 14.0602C79.1141 14.8193 79.4153 15.9217 79.4153 17.3675V17.4398H74.337C74.337 18.2108 74.4755 18.7952 74.7527 19.1928C75.0418 19.5783 75.4514 19.7711 75.9816 19.7711C76.7045 19.7711 77.1623 19.4578 77.3551 18.8313L79.3069 18.994C78.7406 20.4277 77.596 21.1446 75.8731 21.1446ZM75.8731 14.2229C75.3912 14.2229 75.0177 14.3916 74.7527 14.7289C74.4996 15.0663 74.3671 15.5361 74.3551 16.1386H77.4273C77.3912 15.5 77.2346 15.0241 76.9575 14.7108C76.6924 14.3855 76.331 14.2229 75.8731 14.2229ZM86.2857 21C86.2616 20.9277 86.2375 20.747 86.2134 20.4578C86.1893 20.1566 86.1773 19.9096 86.1773 19.7169H86.1411C85.6953 20.6687 84.852 21.1446 83.611 21.1446C82.6833 21.1446 81.9664 20.7892 81.4604 20.0783C80.9664 19.3554 80.7194 18.3434 80.7194 17.0422C80.7194 15.7289 80.9845 14.7169 81.5146 14.006C82.0447 13.2831 82.7977 12.9217 83.7736 12.9217C84.3399 12.9217 84.8218 13.0422 85.2194 13.2831C85.6291 13.512 85.9423 13.8614 86.1592 14.3313H86.1773L86.1592 13.0301V10.1386H88.2194V19.2651C88.2194 19.759 88.2375 20.3373 88.2736 21H86.2857ZM86.1953 16.988C86.1953 16.1325 86.0507 15.4759 85.7616 15.0181C85.4724 14.5602 85.0507 14.3313 84.4965 14.3313C83.9423 14.3313 83.5327 14.5542 83.2676 15C83.0026 15.4458 82.87 16.1265 82.87 17.0422C82.87 18.8373 83.4062 19.7349 84.4785 19.7349C85.0206 19.7349 85.4423 19.5 85.7435 19.0301C86.0447 18.5482 86.1953 17.8675 86.1953 16.988ZM90.4376 21V10.6807H92.5882V21H90.4376ZM99.9465 21V16.5542C99.9465 15.1566 99.4766 14.4578 98.5368 14.4578C98.0428 14.4578 97.6392 14.6747 97.326 15.1084C97.0248 15.5301 96.8742 16.0783 96.8742 16.753V21H94.8139V14.8554C94.8139 14.4337 94.8079 14.0843 94.7959 13.8072C94.7838 13.5301 94.7718 13.2831 94.7597 13.0663H96.7115C96.7236 13.1627 96.7416 13.4157 96.7657 13.8253C96.8019 14.2229 96.82 14.5 96.82 14.6566H96.838C97.1151 14.0542 97.4645 13.6145 97.8862 13.3373C98.3079 13.0602 98.8079 12.9217 99.3862 12.9217C100.23 12.9217 100.874 13.1807 101.32 13.6988C101.778 14.2169 102.007 14.9759 102.007 15.9759V21H99.9465Z" fill="white"/>
<path d="M107 0H5C2.23858 0 0 2.23858 0 5V27C0 29.7614 2.23858 32 5 32H107C109.761 32 112 29.7614 112 27V5C112 2.23858 109.761 0 107 0Z" fill="url(#paint0_linear_22_2)"/>
<defs>
<linearGradient id="paint0_linear_22_2" x1="0" y1="0" x2="0" y2="32" gradientUnits="userSpaceOnUse">
<stop stop-color="#BBBBBB" stop-opacity="0.1"/>
<stop offset="1" stop-opacity="0.1"/>
</linearGradient>
<clipPath id="clip0_22_2">
<rect width="24" height="24" fill="white" transform="translate(4 4)"/>
</clipPath>
</defs>
</svg>
