<svg width="112" height="32" viewBox="0 0 112 32" fill="none" xmlns="http://www.w3.org/2000/svg">
<path d="M107 0H31V32H107C109.761 32 112 29.7614 112 27V5C112 2.23858 109.761 0 107 0Z" fill="#0F1418"/>
<path d="M5 0.5H30.5V31.5H5C2.51472 31.5 0.5 29.4853 0.5 27V5C0.5 2.51472 2.51472 0.5 5 0.5Z" fill="white" stroke="#1C2125"/>
<path d="M15.5 25.5625C21.0574 25.5625 25.5625 21.0574 25.5625 15.5C25.5625 9.94263 21.0574 5.4375 15.5 5.4375C9.94263 5.4375 5.4375 9.94263 5.4375 15.5C5.4375 21.0574 9.94263 25.5625 15.5 25.5625Z" fill="url(#paint0_linear_22_2)"/>
<path d="M20.5216 11.3376C20.6112 10.7586 20.0608 10.3017 19.546 10.5277L9.29346 15.0291C8.92432 15.1912 8.95132 15.7503 9.33418 15.8722L11.4485 16.5456C11.8521 16.6741 12.289 16.6076 12.6414 16.3642L17.4083 13.0708C17.552 12.9715 17.7087 13.1759 17.5859 13.3025L14.1546 16.8402C13.8217 17.1834 13.8878 17.7649 14.2882 18.016L18.1299 20.4251C18.5608 20.6953 19.1151 20.4239 19.1957 19.9031L20.5216 11.3376Z" fill="white"/>
<path d="M43.2234 12.3434V21H41.0728V12.3434H37.7294V10.6807H46.5668V12.3434H43.2234ZM51.1705 21.1446C49.9778 21.1446 49.0621 20.7952 48.4235 20.0964C47.785 19.3855 47.4657 18.3554 47.4657 17.006C47.4657 15.6928 47.791 14.6867 48.4416 13.988C49.0922 13.2771 50.0139 12.9217 51.2067 12.9217C52.3392 12.9217 53.2067 13.3012 53.8091 14.0602C54.4115 14.8193 54.7127 15.9217 54.7127 17.3675V17.4398H49.6344C49.6344 18.2108 49.7729 18.7952 50.0501 19.1928C50.3392 19.5783 50.7488 19.7711 51.279 19.7711C52.0019 19.7711 52.4597 19.4578 52.6525 18.8313L54.6043 18.994C54.038 20.4277 52.8934 21.1446 51.1705 21.1446ZM51.1705 14.2229C50.6886 14.2229 50.3151 14.3916 50.0501 14.7289C49.797 15.0663 49.6645 15.5361 49.6525 16.1386H52.7248C52.6886 15.5 52.532 15.0241 52.2549 14.7108C51.9898 14.3855 51.6284 14.2229 51.1705 14.2229ZM56.4506 21V10.1386H58.5108V21H56.4506ZM64.0257 21.1446C62.8329 21.1446 61.9172 20.7952 61.2787 20.0964C60.6401 19.3855 60.3208 18.3554 60.3208 17.006C60.3208 15.6928 60.6461 14.6867 61.2967 13.988C61.9473 13.2771 62.869 12.9217 64.0618 12.9217C65.1943 12.9217 66.0618 13.3012 66.6642 14.0602C67.2666 14.8193 67.5678 15.9217 67.5678 17.3675V17.4398H62.4895C62.4895 18.2108 62.6281 18.7952 62.9052 19.1928C63.1943 19.5783 63.604 19.7711 64.1341 19.7711C64.857 19.7711 65.3148 19.4578 65.5076 18.8313L67.4594 18.994C66.8931 20.4277 65.7485 21.1446 64.0257 21.1446ZM64.0257 14.2229C63.5437 14.2229 63.1702 14.3916 62.9052 14.7289C62.6522 15.0663 62.5196 15.5361 62.5076 16.1386H65.5799C65.5437 15.5 65.3871 15.0241 65.11 14.7108C64.8449 14.3855 64.4835 14.2229 64.0257 14.2229ZM72.631 24.1807C71.6671 24.1807 70.89 23.994 70.2996 23.6205C69.7093 23.259 69.3418 22.7349 69.1972 22.0482L71.2575 21.8133C71.3298 22.1265 71.4864 22.3735 71.7274 22.5542C71.9683 22.7349 72.2876 22.8253 72.6852 22.8253C73.2515 22.8253 73.6671 22.6506 73.9322 22.3012C74.1972 21.9518 74.3298 21.4277 74.3298 20.7289V20.3133L74.3478 19.5361H74.3298C73.8719 20.512 73.0225 20.994 71.7816 20.9819C70.8539 20.9819 70.137 20.6386 69.631 19.9518C69.1249 19.253 68.8719 18.259 68.8719 16.9699C68.8719 15.6807 69.131 14.6867 69.649 13.988C70.1792 13.2771 70.9382 12.9217 71.9262 12.9217C73.0828 12.9217 73.884 13.3976 74.3298 14.3494H74.3659C74.3659 14.1807 74.378 13.9518 74.4021 13.6627C74.4262 13.3614 74.4502 13.1627 74.4743 13.0663H76.4081C76.384 13.5964 76.3719 14.2108 76.3719 14.9096V20.7651C76.3719 21.8976 76.0527 22.747 75.4141 23.3133C74.7755 23.8916 73.8478 24.1807 72.631 24.1807ZM74.3478 16.9337C74.3478 16.1145 74.2033 15.4759 73.9141 15.0181C73.6249 14.5602 73.2093 14.3313 72.6671 14.3313C71.5707 14.3313 71.0225 15.2108 71.0225 16.9699C71.0225 18.6928 71.5647 19.5542 72.649 19.5542C73.1912 19.5542 73.6069 19.3313 73.896 18.8855C74.1972 18.4277 74.3478 17.7771 74.3478 16.9337ZM78.6263 21V14.9277C78.6263 14.494 78.6203 14.1325 78.6082 13.8434C78.5962 13.5542 78.5841 13.2952 78.5721 13.0663H80.5239C80.5359 13.1506 80.554 13.4217 80.5781 13.8795C80.6143 14.3253 80.6323 14.6205 80.6323 14.7651H80.6504C80.8552 14.2108 81.0359 13.8193 81.1926 13.5904C81.3492 13.3614 81.5299 13.1928 81.7347 13.0843C81.9516 12.9759 82.2227 12.9217 82.548 12.9217C82.813 12.9217 83.0239 12.9578 83.1805 13.0301V14.747C82.8432 14.6747 82.554 14.6386 82.313 14.6386C81.795 14.6386 81.3914 14.8494 81.1022 15.2711C80.8251 15.6807 80.6865 16.2952 80.6865 17.1145V21H78.6263ZM86.4617 21.1446C85.6906 21.1446 85.0882 20.9398 84.6544 20.5301C84.2328 20.1084 84.0219 19.5181 84.0219 18.759C84.0219 17.9398 84.287 17.3193 84.8171 16.8976C85.3593 16.4639 86.1364 16.241 87.1484 16.2289L88.8653 16.1928V15.7952C88.8653 15.2771 88.7749 14.8916 88.5942 14.6386C88.4135 14.3855 88.1183 14.259 87.7087 14.259C87.3231 14.259 87.04 14.3494 86.8593 14.5301C86.6906 14.6988 86.5822 14.9819 86.534 15.3795L84.3834 15.2711C84.5159 14.5 84.8653 13.9157 85.4316 13.5181C86.0099 13.1205 86.799 12.9217 87.799 12.9217C88.799 12.9217 89.5701 13.1687 90.1123 13.6627C90.6544 14.1566 90.9255 14.8614 90.9255 15.7771V18.6506C90.9255 19.0964 90.9737 19.4036 91.0701 19.5723C91.1665 19.741 91.3352 19.8253 91.5761 19.8253C91.7328 19.8253 91.8834 19.8133 92.0279 19.7892V20.8916C91.9075 20.9157 91.799 20.9458 91.7026 20.9819C91.6063 21.006 91.5038 21.0241 91.3954 21.0361C91.299 21.0482 91.1966 21.0602 91.0882 21.0723C90.9798 21.0843 90.8532 21.0904 90.7087 21.0904C90.1906 21.0904 89.8051 20.9639 89.552 20.7108C89.3111 20.4578 89.1665 20.0843 89.1183 19.5904H89.0822C88.4918 20.6265 87.6183 21.1446 86.4617 21.1446ZM88.8653 17.3313L87.799 17.3494C87.3171 17.3735 86.9737 17.4277 86.7689 17.512C86.5761 17.5964 86.4255 17.7289 86.3171 17.9096C86.2207 18.0783 86.1725 18.3072 86.1725 18.5964C86.1725 18.9699 86.2569 19.253 86.4255 19.4458C86.6063 19.6265 86.8412 19.7169 87.1304 19.7169C87.4557 19.7169 87.7508 19.6265 88.0159 19.4458C88.281 19.2651 88.4858 19.0241 88.6304 18.7229C88.787 18.4096 88.8653 18.0783 88.8653 17.7289V17.3313ZM97.814 21V16.5542C97.814 15.1566 97.4164 14.4578 96.6212 14.4578C96.2116 14.4578 95.8742 14.6747 95.6092 15.1084C95.3441 15.5301 95.2116 16.0783 95.2116 16.753V21H93.1513V14.8554C93.1513 14.4337 93.1453 14.0843 93.1333 13.8072C93.1212 13.5301 93.1092 13.2831 93.0971 13.0663H95.0489C95.061 13.1627 95.079 13.4157 95.1031 13.8253C95.1393 14.2229 95.1574 14.5 95.1574 14.6566H95.1754C95.4284 14.0542 95.7417 13.6145 96.1152 13.3373C96.5007 13.0602 96.9586 12.9217 97.4887 12.9217C98.7056 12.9217 99.4405 13.5 99.6935 14.6566H99.7296C99.9947 14.0422 100.314 13.6024 100.687 13.3373C101.073 13.0602 101.555 12.9217 102.133 12.9217C102.904 12.9217 103.495 13.1867 103.904 13.7169C104.314 14.2349 104.519 14.988 104.519 15.9759V21H102.459V16.5542C102.459 15.1566 102.061 14.4578 101.266 14.4578C100.868 14.4578 100.537 14.6566 100.272 15.0542C100.019 15.4398 99.8803 15.9759 99.8562 16.6627V21H97.814Z" fill="white"/>
<path d="M107 0H5C2.23858 0 0 2.23858 0 5V27C0 29.7614 2.23858 32 5 32H107C109.761 32 112 29.7614 112 27V5C112 2.23858 109.761 0 107 0Z" fill="url(#paint1_linear_22_2)"/>
<defs>
<linearGradient id="paint0_linear_22_2" x1="15.5" y1="5.4375" x2="15.5" y2="25.5625" gradientUnits="userSpaceOnUse">
<stop stop-color="#37BBFE"/>
<stop offset="1" stop-color="#007DBB"/>
</linearGradient>
<linearGradient id="paint1_linear_22_2" x1="0" y1="0" x2="0" y2="32" gradientUnits="userSpaceOnUse">
<stop stop-color="#BBBBBB" stop-opacity="0.1"/>
<stop offset="1" stop-opacity="0.1"/>
</linearGradient>
</defs>
</svg>
